<svg data-name="Layer 1" xmlns="http://www.w3.org/2000/svg" viewBox="0 0 512 512"><path fill="none" stroke="#79c2d3" stroke-miterlimit="10" stroke-width="79.722" d="M126.468 362.87l258.519-258.519"/><path fill="none" stroke="#3650a3" stroke-miterlimit="10" stroke-width=".524" d="M126.468 362.87l258.519-258.519"/><path fill="#414242" d="M97.88 132.135l56.372-56.372 259.323 259.323-56.372 56.372z"/><path fill="#fff" stroke="#3650a3" stroke-miterlimit="10" stroke-width=".524" d="M124.495 360.647h4.196v4.196h-4.196zM382.666 102.476h4.196v4.196h-4.196z"/><path fill="none" stroke="#3650a3" stroke-miterlimit="10" stroke-width=".524" d="M97.88 132.135l56.372-56.372 259.323 259.323-56.372 56.372z"/><path fill="#fff" stroke="#3650a3" stroke-miterlimit="10" stroke-width=".524" d="M411.477 333.37h4.196v4.196h-4.196zM355.256 389.36h4.196v4.196h-4.196zM383.367 361.25h4.196v4.196h-4.196zM152.548 74.441h4.196v4.196h-4.196zM96.327 130.431h4.196v4.196h-4.196zM124.438 102.321h4.196v4.196h-4.196zM281.682 203.575h4.196v4.196h-4.196zM225.461 259.566h4.196v4.196h-4.196z"/><g fill="#231f20"><path d="M122.938 454.309a7.207 7.207 0 0 1 5.918 2.507q2.05 2.506 2.05 7.255 0 4.765-2.042 7.263a8.258 8.258 0 0 1-11.837 0q-2.042-2.5-2.042-7.263 0-4.748 2.042-7.255a7.181 7.181 0 0 1 5.911-2.507zm0 2.59a3.949 3.949 0 0 0-3.52 1.81 12.608 12.608 0 0 0 0 10.717 4.333 4.333 0 0 0 7.056 0 12.608 12.608 0 0 0 0-10.717 3.965 3.965 0 0 0-3.536-1.809zM136.419 466.312V454.79h3.055v11.521a6.146 6.146 0 0 0 .888 3.686 3.216 3.216 0 0 0 2.748 1.179 3.889 3.889 0 0 0 3.3-1.519 7.137 7.137 0 0 0 1.146-4.358V454.79h3.071v18.561h-3.071v-2.789a5.777 5.777 0 0 1-2.216 2.44 6.316 6.316 0 0 1-3.279.83 4.958 4.958 0 0 1-4.25-1.868 9.418 9.418 0 0 1-1.392-5.652zM163.845 449.478v5.279h6.939v2.374h-6.939v10.094a4.129 4.129 0 0 0 .78 2.872 3.69 3.69 0 0 0 2.723.813h3.437v2.44h-3.735q-3.437 0-4.848-1.378t-1.411-4.748v-10.093h-4.964v-2.374h4.964v-5.279zM186.058 466.627a5.284 5.284 0 0 0 .755 3.1 2.577 2.577 0 0 0 2.233 1.046h3.569v2.573h-3.868a5.284 5.284 0 0 1-4.242-1.752 7.409 7.409 0 0 1-1.5-4.972V449.81h-4.9v-2.391h7.952zM199.837 454.823h7.819v16.153h6.06v2.374h-15.174v-2.374h6.06V457.2h-4.765zm4.763-7.223h3.055v3.852H204.6zM232.509 461.829v11.521h-3.071v-11.521a6.193 6.193 0 0 0-.88-3.686 3.213 3.213 0 0 0-2.756-1.179 3.894 3.894 0 0 0-3.3 1.519 7.1 7.1 0 0 0-1.154 4.358v10.509H218.3v-18.593h3.055v2.789a5.758 5.758 0 0 1 2.208-2.416 6.4 6.4 0 0 1 3.3-.821 4.963 4.963 0 0 1 4.242 1.868 9.376 9.376 0 0 1 1.404 5.652zM254.124 462.526v1.494h-13.231v.1q-.133 3.8 1.453 5.462a5.894 5.894 0 0 0 4.474 1.66 10.917 10.917 0 0 0 3.055-.465 18.721 18.721 0 0 0 3.4-1.411v3.034a20.673 20.673 0 0 1-3.362 1.071 14.563 14.563 0 0 1-3.129.356 8.84 8.84 0 0 1-6.773-2.6 10.045 10.045 0 0 1-2.44-7.163 10.222 10.222 0 0 1 2.391-7.105 8.158 8.158 0 0 1 6.375-2.656 6.975 6.975 0 0 1 5.6 2.407 9.247 9.247 0 0 1 2.187 5.816zm-3.055-.9a5.917 5.917 0 0 0-1.4-3.328 4.311 4.311 0 0 0-3.461-1.4 4.867 4.867 0 0 0-3.636 1.461 5.148 5.148 0 0 0-1.561 3.287zM292.623 455.4v2.988a11.693 11.693 0 0 0-2.64-1.146 9.739 9.739 0 0 0-2.706-.382 5.693 5.693 0 0 0-3.1.673 2.283 2.283 0 0 0-1.021 2.05 2.241 2.241 0 0 0 .764 1.859 10.421 10.421 0 0 0 3.8 1.2l1.229.232a5.989 5.989 0 0 1 3.451 1.726 4.833 4.833 0 0 1 1.171 3.37 5.192 5.192 0 0 1-1.959 4.309 8.563 8.563 0 0 1-5.445 1.552 15.324 15.324 0 0 1-2.889-.29 26.433 26.433 0 0 1-3.271-.872v-3.154a17.6 17.6 0 0 0 3.271 1.319 10.877 10.877 0 0 0 2.955.44 5.21 5.21 0 0 0 3.138-.821 2.7 2.7 0 0 0 1.112-2.3q0-2.125-4.067-2.938l-.133-.033-1.146-.232a7.313 7.313 0 0 1-3.852-1.734 4.516 4.516 0 0 1-1.212-3.329 4.985 4.985 0 0 1 1.81-4.126 8.07 8.07 0 0 1 5.163-1.452 14.628 14.628 0 0 1 2.872.274 14.441 14.441 0 0 1 2.705.817zM307.133 449.478v5.279h6.939v2.374h-6.939v10.094a4.129 4.129 0 0 0 .78 2.872 3.689 3.689 0 0 0 2.723.813h3.437v2.44h-3.735q-3.437 0-4.848-1.378t-1.411-4.748v-10.093h-4.964v-2.374h4.964v-5.279zM336.584 458.592a6.93 6.93 0 0 0-1.992-1.112 6.8 6.8 0 0 0-2.225-.349 5.388 5.388 0 0 0-4.367 1.793 7.832 7.832 0 0 0-1.511 5.18v9.247h-3.071v-18.594h3.071v3.636a6.2 6.2 0 0 1 2.349-3.03 6.638 6.638 0 0 1 3.761-1.054 7.573 7.573 0 0 1 2.108.282 6.735 6.735 0 0 1 1.876.88zM348.105 454.309a7.2 7.2 0 0 1 5.918 2.507q2.051 2.506 2.051 7.255 0 4.765-2.042 7.263a8.258 8.258 0 0 1-11.837 0q-2.042-2.5-2.042-7.263 0-4.748 2.042-7.255a7.181 7.181 0 0 1 5.91-2.507zm0 2.59a3.949 3.949 0 0 0-3.52 1.81 12.608 12.608 0 0 0 0 10.717 4.333 4.333 0 0 0 7.056 0 12.608 12.608 0 0 0 0-10.717 3.965 3.965 0 0 0-3.536-1.809zM362.267 447.519h3.154v14.958l8.019-7.72h3.719l-7.321 7.006 8.467 11.588h-3.735l-6.873-9.6-2.274 2.142v7.454h-3.154zM397.412 462.526v1.494h-13.231v.1q-.133 3.8 1.452 5.462a5.9 5.9 0 0 0 4.475 1.66 10.917 10.917 0 0 0 3.055-.465 18.707 18.707 0 0 0 3.4-1.411v3.034a20.647 20.647 0 0 1-3.362 1.071 14.552 14.552 0 0 1-3.129.356 8.84 8.84 0 0 1-6.773-2.6 10.045 10.045 0 0 1-2.44-7.163 10.222 10.222 0 0 1 2.391-7.105 8.158 8.158 0 0 1 6.375-2.656 6.972 6.972 0 0 1 5.6 2.407 9.245 9.245 0 0 1 2.187 5.816zm-3.055-.9a5.92 5.92 0 0 0-1.4-3.328 4.312 4.312 0 0 0-3.462-1.4 4.868 4.868 0 0 0-3.636 1.461 5.151 5.151 0 0 0-1.561 3.287z"/></g></svg>